<svg id="CSB-3" xmlns="http://www.w3.org/2000/svg" width="93.083" height="85.917" viewBox="0 0 93.083 85.917">
  <g id="Oval" transform="translate(66 20.917) rotate(90)" fill="none" stroke="#fff" stroke-miterlimit="10" stroke-width="1">
    <ellipse cx="20.5" cy="20.417" rx="20.5" ry="20.417" stroke="none"/>
    <ellipse cx="20.5" cy="20.417" rx="20" ry="19.917" fill="none"/>
  </g>
  <g id="Oval_Copy_11" data-name="Oval Copy 11" transform="translate(93.083 46) rotate(90)" fill="none" stroke="#fff" stroke-miterlimit="10" stroke-width="1">
    <circle cx="13.5" cy="13.5" r="13.5" stroke="none"/>
    <circle cx="13.5" cy="13.5" r="13" fill="none"/>
  </g>
  <g id="Oval_Copy_9" data-name="Oval Copy 9" transform="translate(53.083 66) rotate(90)" fill="none" stroke="#232323" stroke-miterlimit="10" stroke-width="1">
    <circle cx="7" cy="7" r="7" stroke="none"/>
    <circle cx="7" cy="7" r="6.5" fill="none"/>
  </g>
  <g id="Oval_Copy_3" data-name="Oval Copy 3" transform="translate(87 23) rotate(90)" fill="none" stroke="#2f2f2f" stroke-miterlimit="10" stroke-width="1">
    <circle cx="9" cy="9" r="9" stroke="none"/>
    <circle cx="9" cy="9" r="8.5" fill="none"/>
  </g>
  <g id="Oval_Copy" data-name="Oval Copy" transform="translate(25 13.917) rotate(90)" fill="none" stroke="#c3c3c3" stroke-miterlimit="10" stroke-width="1">
    <circle cx="12.5" cy="12.5" r="12.5" stroke="none"/>
    <circle cx="12.5" cy="12.5" r="12" fill="none"/>
  </g>
  <g id="Oval_Copy_10" data-name="Oval Copy 10" transform="translate(78.083) rotate(90)" fill="none" stroke="#c3c3c3" stroke-miterlimit="10" stroke-width="1">
    <circle cx="10.5" cy="10.5" r="10.5" stroke="none"/>
    <circle cx="10.5" cy="10.5" r="10" fill="none"/>
  </g>
  <g id="Oval_Copy_2" data-name="Oval Copy 2" transform="translate(36 55.917) rotate(90)" fill="none" stroke="#9f9f9f" stroke-miterlimit="10" stroke-width="1">
    <circle cx="15" cy="15" r="15" stroke="none"/>
    <circle cx="15" cy="15" r="14.5" fill="none"/>
  </g>
</svg>
