<svg xmlns="http://www.w3.org/2000/svg" width="107.334" height="78.104" viewBox="0 0 107.334 78.104">
  <g id="CSB-2" transform="translate(-761 -2709.667)">
    <g id="Oval" transform="translate(808.334 2713) rotate(90)" fill="none" stroke="#fff" stroke-miterlimit="10" stroke-width="1">
      <ellipse cx="16" cy="15.667" rx="16" ry="15.667" stroke="none"/>
      <ellipse cx="16" cy="15.667" rx="15.5" ry="15.167" fill="none"/>
    </g>
    <g id="Oval_Copy_4" data-name="Oval Copy 4" transform="translate(823.334 2723.899) rotate(90)" fill="none" stroke="#fff" stroke-miterlimit="10" stroke-width="1">
      <ellipse cx="16" cy="15.667" rx="16" ry="15.667" stroke="none"/>
      <ellipse cx="16" cy="15.667" rx="15.5" ry="15.167" fill="none"/>
    </g>
    <g id="Oval_Copy_5" data-name="Oval Copy 5" transform="translate(843.667 2709.667) rotate(90)" fill="none" stroke="#fff" stroke-miterlimit="10" stroke-width="1">
      <ellipse cx="16" cy="15.667" rx="16" ry="15.667" stroke="none"/>
      <ellipse cx="16" cy="15.667" rx="15.5" ry="15.167" fill="none"/>
    </g>
    <g id="Oval_Copy_6" data-name="Oval Copy 6" transform="translate(868.334 2742.063) rotate(90)" fill="none" stroke="#757575" stroke-miterlimit="10" stroke-width="1">
      <ellipse cx="16" cy="15.667" rx="16" ry="15.667" stroke="none"/>
      <ellipse cx="16" cy="15.667" rx="15.5" ry="15.167" fill="none"/>
    </g>
    <g id="Oval_Copy_8" data-name="Oval Copy 8" transform="translate(827.771 2765.771) rotate(90)" fill="none" stroke="#434242" stroke-miterlimit="10" stroke-width="1">
      <ellipse cx="11" cy="10.771" rx="11" ry="10.771" stroke="none"/>
      <ellipse cx="11" cy="10.771" rx="10.5" ry="10.271" fill="none"/>
    </g>
    <g id="Oval_Copy_7" data-name="Oval Copy 7" transform="translate(792.334 2749.543) rotate(90)" fill="none" stroke="#b6b6b6" stroke-miterlimit="10" stroke-width="1">
      <ellipse cx="16" cy="15.667" rx="16" ry="15.667" stroke="none"/>
      <ellipse cx="16" cy="15.667" rx="15.5" ry="15.167" fill="none"/>
    </g>
  </g>
</svg>
