<svg xmlns="http://www.w3.org/2000/svg" width="18" height="18" viewBox="0 0 18 18">
  <path id="CSI-1" d="M5.133,18a4.578,4.578,0,0,1-3.921-1.864A7.318,7.318,0,0,1,0,11.795c.081.055.205.148.35.255a6.236,6.236,0,0,0,1.866,1.123.612.612,0,0,0,.585-.4A4.017,4.017,0,0,1,6.327,9.913c-.288-1.854.253-2.327,4.468-6.008,1-.878,2.256-1.97,3.748-3.3A2.224,2.224,0,0,1,16.016,0,1.908,1.908,0,0,1,18,1.816,3.793,3.793,0,0,1,17.491,3.5c-3.954,7.378-5.31,9.129-7.258,9.369a4.608,4.608,0,0,1-1.072,3.534A5.16,5.16,0,0,1,5.133,18ZM1.45,14.108a3.57,3.57,0,0,0,3.683,2.767,4.026,4.026,0,0,0,3.182-1.211,3.463,3.463,0,0,0,.77-2.894L6.8,10.991c-2.244.268-2.673,1.44-2.9,2.069l-.042.112A1.734,1.734,0,0,1,2.216,14.3,1.824,1.824,0,0,1,1.45,14.108ZM16.016,1.125a1.122,1.122,0,0,0-.722.315c-1.649,1.473-2.957,2.619-4.007,3.54C7.241,8.527,7.241,8.527,7.466,9.919c.01.061.02.125.031.191l2.18,1.7c1.784-.22,2.687-1.117,6.823-8.835a2.809,2.809,0,0,0,.376-1.155A.8.8,0,0,0,16.016,1.125Z"/>
</svg>
