<svg xmlns="http://www.w3.org/2000/svg" width="798" height="474" viewBox="0 0 798 474">
  <g id="G-1" transform="translate(-488 -4238)">
    <g id="Rectangle" transform="translate(488 4238)" fill="none" stroke="#000" stroke-miterlimit="10" stroke-width="1">
      <rect width="798" height="474" stroke="none"/>
      <rect x="0.5" y="0.5" width="797" height="473" fill="none"/>
    </g>
    <path id="Combined_Shape" data-name="Combined Shape" d="M510.128,74H485.139a.938.938,0,0,1-1.059-1.057V1.057A.938.938,0,0,1,485.139,0h24.989a30.123,30.123,0,0,1,9.411,1.374A20.539,20.539,0,0,1,526.805,5.5a17.677,17.677,0,0,1,4.646,6.475A21.894,21.894,0,0,1,533,20.4V53.6a21.893,21.893,0,0,1-1.549,8.431,17.676,17.676,0,0,1-4.646,6.475,20.539,20.539,0,0,1-7.266,4.123A30.123,30.123,0,0,1,510.128,74ZM492.021,6.555a.375.375,0,0,0-.423.422V67.023a.375.375,0,0,0,.423.423h18.425c4.567,0,8.254-1.352,10.959-4.018s4.077-6.293,4.077-10.783V21.46c0-4.558-1.354-8.222-4.024-10.888s-6.375-4.017-11.012-4.017ZM473.88,74h-5.718a1.239,1.239,0,0,1-1.271-.845l-4.235-13.32a.418.418,0,0,0-.424-.318h-31.66a.418.418,0,0,0-.424.318l-4.235,13.32a1.239,1.239,0,0,1-1.271.845h-5.718a.942.942,0,0,1-.787-.281,1,1,0,0,1-.06-.882L441.478.846A1.239,1.239,0,0,1,442.749,0h7.2a1.239,1.239,0,0,1,1.271.846l23.507,71.991.106.423C474.833,73.751,474.512,74,473.88,74ZM446.349,9.514a.342.342,0,0,0-.318.211L432.266,52.857a.294.294,0,0,0,.053.37.51.51,0,0,0,.371.158h27.319a.507.507,0,0,0,.371-.158.292.292,0,0,0,.053-.37L446.666,9.725A.34.34,0,0,0,446.349,9.514ZM408.724,74h-5.612a1.25,1.25,0,0,1-1.271-.74L386.276,40.488a.415.415,0,0,0-.423-.317h-18a.375.375,0,0,0-.423.423V72.943A.938.938,0,0,1,366.368,74h-5.4a.938.938,0,0,1-1.059-1.057V1.057A.938.938,0,0,1,360.968,0h27.425a22.9,22.9,0,0,1,8.233,1.414,18.366,18.366,0,0,1,6.486,4.242,18.588,18.588,0,0,1,4.209,6.515,23.1,23.1,0,0,1,1.4,8.233,22.466,22.466,0,0,1-1.006,6.845,18.506,18.506,0,0,1-3.018,5.735,17.629,17.629,0,0,1-4.739,4.255,19.771,19.771,0,0,1-6.168,2.405.472.472,0,0,0-.275.266.32.32,0,0,0,.062.262l15.883,32.56a1.17,1.17,0,0,1,.106.528C409.571,73.751,409.286,74,408.724,74ZM367.851,6.555a.375.375,0,0,0-.423.422V33.723a.375.375,0,0,0,.423.423h19.7A13.534,13.534,0,0,0,397.5,30.34a13.487,13.487,0,0,0,3.811-9.937,13.667,13.667,0,0,0-3.811-9.99,13.433,13.433,0,0,0-9.954-3.858ZM294.508,74H243.893a1.265,1.265,0,0,1-1.271-1.268V1.269a1.226,1.226,0,0,1,.371-.9,1.23,1.23,0,0,1,.9-.37h15.036a1.233,1.233,0,0,1,.9.37,1.23,1.23,0,0,1,.371.9V58.46a.469.469,0,0,0,.529.528h33.779a1.263,1.263,0,0,1,1.27,1.268V72.732A1.263,1.263,0,0,1,294.508,74Zm-56.262,0H187.632a1.265,1.265,0,0,1-1.271-1.268V1.269a1.226,1.226,0,0,1,.371-.9,1.23,1.23,0,0,1,.9-.37h15.035a1.234,1.234,0,0,1,.9.37,1.229,1.229,0,0,1,.37.9V58.46a.469.469,0,0,0,.53.528h33.778a1.264,1.264,0,0,1,1.271,1.268V72.732A1.264,1.264,0,0,1,238.246,74Zm-56.367,0h-16.2a1.4,1.4,0,0,1-1.482-1.057l-2.753-9.409c-.14-.281-.318-.423-.529-.423H136.771c-.211,0-.39.142-.53.423l-2.753,9.409A1.4,1.4,0,0,1,132.006,74H115.8a1.192,1.192,0,0,1-.953-.37,1.161,1.161,0,0,1-.105-1.11L137.406,1.058A1.335,1.335,0,0,1,138.783,0H158.8a1.333,1.333,0,0,1,1.376,1.057L182.939,72.52a1.182,1.182,0,0,1,.105.528C183.044,73.68,182.652,74,181.879,74Zm-33.1-52.6a.185.185,0,0,0-.046.006.5.5,0,0,0-.318.37l-7.942,27.168a.618.618,0,0,0,.075.505.434.434,0,0,0,.349.129h15.777a.489.489,0,0,0,.418-.151.538.538,0,0,0,.006-.484l-8.048-27.168C148.991,21.528,148.9,21.4,148.782,21.4ZM111.958,74H61.873A1.265,1.265,0,0,1,60.6,72.732V1.269a1.226,1.226,0,0,1,.371-.9,1.233,1.233,0,0,1,.9-.37h50.085a1.23,1.23,0,0,1,.9.37,1.227,1.227,0,0,1,.371.9V13.743a1.265,1.265,0,0,1-1.271,1.268H78.71a.469.469,0,0,0-.529.529v13a.469.469,0,0,0,.529.529H99.993a1.263,1.263,0,0,1,1.271,1.268V42.709a1.263,1.263,0,0,1-1.271,1.268H78.71a.469.469,0,0,0-.529.529V58.46a.469.469,0,0,0,.529.528h33.249a1.265,1.265,0,0,1,1.271,1.268V72.732A1.265,1.265,0,0,1,111.958,74ZM55.591,74H39.708a1.505,1.505,0,0,1-1.482-.951L25.731,44.929a.681.681,0,0,0-.635-.423H18.107a.469.469,0,0,0-.529.528v27.7A1.265,1.265,0,0,1,16.307,74H1.271a1.23,1.23,0,0,1-.9-.37,1.226,1.226,0,0,1-.371-.9V1.269A1.226,1.226,0,0,1,.371.37a1.23,1.23,0,0,1,.9-.37H32.72A25.609,25.609,0,0,1,45,2.854a20.232,20.232,0,0,1,8.206,8.087,24.368,24.368,0,0,1,2.912,12A21.5,21.5,0,0,1,52.627,35.2a19.762,19.762,0,0,1-9.742,7.506.5.5,0,0,0-.318.74L56.544,72.52a1.621,1.621,0,0,1,.211.634C56.756,73.715,56.364,74,55.591,74ZM18.107,15.011a.469.469,0,0,0-.529.529V30.551a.469.469,0,0,0,.529.528H29.86a9.239,9.239,0,0,0,6.354-2.167,7.364,7.364,0,0,0,2.435-5.761,7.654,7.654,0,0,0-2.435-5.92,9.107,9.107,0,0,0-6.354-2.22Zm310,58.777h-14.93a1.265,1.265,0,0,1-1.271-1.268V47.466a1.452,1.452,0,0,0-.106-.634L290.094,1.48a1.621,1.621,0,0,1-.211-.634c0-.561.392-.846,1.165-.846h16.307a1.505,1.505,0,0,1,1.482.951L320.378,27.7c.106.21.213.317.318.317s.212-.106.317-.317L332.662.951A1.5,1.5,0,0,1,334.144,0h16.413a1.168,1.168,0,0,1,1.005.37,1.139,1.139,0,0,1-.052,1.11L329.486,46.832a1.451,1.451,0,0,0-.106.634V72.52a1.264,1.264,0,0,1-1.271,1.268Z" transform="translate(621 4438)"/>
  </g>
</svg>
