<svg xmlns="http://www.w3.org/2000/svg" width="797" height="306" viewBox="0 0 797 306">
  <g id="G-3" transform="translate(-488 -5438)">
    <rect id="Rectangle" width="451" height="306" transform="translate(488 5438)"/>
    <g id="Group" transform="translate(590 5533)">
      <path id="Combined_Shape" data-name="Combined Shape" d="M127.623,52H116.255a.982.982,0,0,1-1.04-.743l-1.931-6.611c-.1-.2-.224-.3-.372-.3H95.971c-.148,0-.273.1-.372.3l-1.931,6.611a.982.982,0,0,1-1.04.743H81.259a.837.837,0,0,1-.669-.26.818.818,0,0,1-.075-.78L96.416.743A.936.936,0,0,1,97.382,0h14.044a.936.936,0,0,1,.966.742L128.365,50.96a.821.821,0,0,1,.075.372C128.44,51.775,128.165,52,127.623,52ZM104.4,15.039a.133.133,0,0,0-.032,0,.35.35,0,0,0-.223.26L98.571,34.394a.433.433,0,0,0,.053.355.306.306,0,0,0,.245.091h11.07a.344.344,0,0,0,.294-.106.378.378,0,0,0,0-.34L104.589,15.3C104.545,15.127,104.481,15.039,104.4,15.039ZM39.008,52H27.863a1.056,1.056,0,0,1-1.04-.669l-8.768-19.76a.478.478,0,0,0-.445-.3h-4.9a.329.329,0,0,0-.372.372V51.108a.888.888,0,0,1-.891.892H.892a.867.867,0,0,1-.632-.26A.864.864,0,0,1,0,51.108V.891A.86.86,0,0,1,.26.26.864.864,0,0,1,.892,0H22.959a17.938,17.938,0,0,1,8.618,2.006,14.2,14.2,0,0,1,5.759,5.683,17.149,17.149,0,0,1,2.043,8.431,15.128,15.128,0,0,1-2.452,8.618,13.876,13.876,0,0,1-6.836,5.274.354.354,0,0,0-.222.52L39.676,50.96a1.146,1.146,0,0,1,.148.445C39.825,51.8,39.55,52,39.008,52Zm-26.3-41.451a.329.329,0,0,0-.372.371V21.469a.329.329,0,0,0,.372.372h8.248a6.478,6.478,0,0,0,4.458-1.523,5.179,5.179,0,0,0,1.709-4.049,5.383,5.383,0,0,0-1.709-4.16,6.381,6.381,0,0,0-4.458-1.56Z" fill="#fff"/>
      <path id="Path" d="M36.036,52a.888.888,0,0,0,.892-.891h0V42.343a.888.888,0,0,0-.892-.891H12.705a.328.328,0,0,1-.372-.371h0V31.274a.328.328,0,0,1,.372-.371H27.64a.888.888,0,0,0,.892-.891h0V21.32a.888.888,0,0,0-.892-.891H12.705a.328.328,0,0,1-.372-.371h0V10.92a.328.328,0,0,1,.372-.371h23.33a.888.888,0,0,0,.892-.891h0V.891a.86.86,0,0,0-.26-.631A.86.86,0,0,0,36.036,0H.892A.86.86,0,0,0,.26.26.86.86,0,0,0,0,.891H0V51.109a.86.86,0,0,0,.26.631A.86.86,0,0,0,.892,52H36.036Z" transform="translate(42.524)" fill="#fff"/>
      <path id="Path-2" data-name="Path" d="M36.407,52a.888.888,0,0,0,.892-.891h0V42.343a.888.888,0,0,0-.892-.891h-23.7a.328.328,0,0,1-.372-.371h0V.891a.86.86,0,0,0-.26-.631A.86.86,0,0,0,11.442,0H.892A.86.86,0,0,0,.26.26.86.86,0,0,0,0,.891H0V51.109a.86.86,0,0,0,.26.631A.86.86,0,0,0,.892,52H36.407Z" transform="translate(130.767)" fill="#fff"/>
      <path id="Path-3" data-name="Path" d="M36.407,52a.888.888,0,0,0,.892-.891h0V42.343a.888.888,0,0,0-.892-.891h-23.7a.328.328,0,0,1-.372-.371h0V.891a.86.86,0,0,0-.26-.631A.86.86,0,0,0,11.442,0H.892A.86.86,0,0,0,.26.26.86.86,0,0,0,0,.891H0V51.109a.86.86,0,0,0,.26.631A.86.86,0,0,0,.892,52H36.407Z" transform="translate(170.245)" fill="#fff"/>
      <path id="Path-4" data-name="Path" d="M26.823,51.851a.888.888,0,0,0,.892-.891h0V33.354a1.034,1.034,0,0,1,.074-.446h0L43.243,1.04A.8.8,0,0,0,43.28.26.816.816,0,0,0,42.574,0H31.058a1.052,1.052,0,0,0-1.04.669h0L21.844,19.463q-.223.446-.446,0h0L13.3.669A1.052,1.052,0,0,0,12.26,0H.817Q0,0,0,.594a1.14,1.14,0,0,0,.149.446h0L15.38,32.909a1.034,1.034,0,0,1,.074.446h0V50.96a.888.888,0,0,0,.892.891H26.823Z" transform="translate(203.407 0)" fill="#fff"/>
      <path id="Combined_Shape-2" data-name="Combined Shape" d="M105.407,52H87.872a.659.659,0,0,1-.742-.743V.743A.658.658,0,0,1,87.872,0h17.536a21.106,21.106,0,0,1,6.6.966,14.416,14.416,0,0,1,5.1,2.9,12.419,12.419,0,0,1,3.26,4.55,15.4,15.4,0,0,1,1.087,5.924V37.663a15.4,15.4,0,0,1-1.087,5.924,12.425,12.425,0,0,1-3.26,4.55,14.416,14.416,0,0,1-5.1,2.9A21.106,21.106,0,0,1,105.407,52ZM92.7,4.605a.264.264,0,0,0-.3.3V47.1a.263.263,0,0,0,.3.3h12.928a10.517,10.517,0,0,0,7.691-2.822,10.208,10.208,0,0,0,2.86-7.577V15.08a10.384,10.384,0,0,0-2.823-7.652,10.487,10.487,0,0,0-7.727-2.823ZM79.971,52H75.959a.869.869,0,0,1-.891-.595L72.1,42.045a.292.292,0,0,0-.3-.222H49.583a.292.292,0,0,0-.3.222l-2.973,9.36a.869.869,0,0,1-.891.595H41.41a.661.661,0,0,1-.552-.2.706.706,0,0,1-.043-.62L57.236.594A.87.87,0,0,1,58.127,0H63.18a.869.869,0,0,1,.891.594l16.5,50.589.074.3C80.64,51.825,80.415,52,79.971,52ZM60.654,6.686a.239.239,0,0,0-.223.149L50.772,37.143a.208.208,0,0,0,.037.26.361.361,0,0,0,.26.112h19.17a.361.361,0,0,0,.26-.112.208.208,0,0,0,.037-.26L60.876,6.835A.238.238,0,0,0,60.654,6.686ZM34.252,52H30.315a.876.876,0,0,1-.892-.52L18.5,28.452a.294.294,0,0,0-.3-.223H5.573a.263.263,0,0,0-.3.3V51.257A.659.659,0,0,1,4.532,52H.743A.659.659,0,0,1,0,51.257V.743A.659.659,0,0,1,.743,0H19.987a16.048,16.048,0,0,1,5.777.994,12.885,12.885,0,0,1,4.551,2.981,13.057,13.057,0,0,1,2.953,4.578,16.254,16.254,0,0,1,.984,5.785,14.047,14.047,0,0,1-2.823,8.84,12.778,12.778,0,0,1-7.653,4.68.331.331,0,0,0-.192.187.226.226,0,0,0,.044.184l11.145,22.88a.831.831,0,0,1,.075.372C34.847,51.825,34.647,52,34.252,52ZM5.573,4.605a.264.264,0,0,0-.3.3V23.7a.263.263,0,0,0,.3.3h13.82a9.49,9.49,0,0,0,6.985-2.674,9.485,9.485,0,0,0,2.675-6.983,9.613,9.613,0,0,0-2.675-7.02,9.421,9.421,0,0,0-6.985-2.712Z" transform="translate(0 65)" fill="#fff"/>
    </g>
    <rect id="Rectangle-2" data-name="Rectangle" width="306" height="306" transform="translate(979 5438)"/>
    <g id="Group_4" data-name="Group 4" transform="translate(1039 5545)">
      <path id="Combined_Shape-3" data-name="Combined Shape" d="M68.564,92H48.973a1.855,1.855,0,0,1-1.828-1.183L31.735,55.857a.839.839,0,0,0-.783-.526h-8.62a.581.581,0,0,0-.653.658V90.423a1.532,1.532,0,0,1-.457,1.117,1.513,1.513,0,0,1-1.11.46H1.567a1.51,1.51,0,0,1-1.11-.46A1.532,1.532,0,0,1,0,90.423V1.577A1.532,1.532,0,0,1,.457.46,1.51,1.51,0,0,1,1.567,0H40.354A31.373,31.373,0,0,1,55.5,3.549,25.045,25.045,0,0,1,65.625,13.6,30.5,30.5,0,0,1,69.216,28.52a30.232,30.232,0,0,1-1.077,8.214,24.7,24.7,0,0,1-3.232,7.032,23.7,23.7,0,0,1-5.159,5.553A26.087,26.087,0,0,1,52.892,53.1a.629.629,0,0,0-.392.92L69.739,90.16a2.04,2.04,0,0,1,.261.788C70,91.646,69.517,92,68.564,92ZM22.653,19a.581.581,0,0,0-.653.658V38.342a.581.581,0,0,0,.653.658h14.5a11.34,11.34,0,0,0,7.839-2.7A9.2,9.2,0,0,0,48,29.131a9.568,9.568,0,0,0-3.005-7.368A11.177,11.177,0,0,0,37.156,19Z" fill="#fff"/>
      <path id="Combined_Shape-4" data-name="Combined Shape" d="M60.943,92H53.936a1.56,1.56,0,0,1-1.587-.92L32.917,50.337a.52.52,0,0,0-.528-.394H9.914a.467.467,0,0,0-.528.526V90.686A1.168,1.168,0,0,1,8.064,92H1.322A1.168,1.168,0,0,1,0,90.686V1.314A1.168,1.168,0,0,1,1.322,0H35.561A28.7,28.7,0,0,1,45.839,1.758,23.28,23.28,0,0,1,59.191,15.131a28.608,28.608,0,0,1,1.752,10.235,27.819,27.819,0,0,1-1.256,8.51,22.979,22.979,0,0,1-3.768,7.13A21.971,21.971,0,0,1,50,46.3a24.73,24.73,0,0,1-7.7,2.99.588.588,0,0,0-.343.332.4.4,0,0,0,.078.325l19.83,40.48A1.463,1.463,0,0,1,62,91.08C62,91.69,61.644,92,60.943,92ZM10.525,8A.463.463,0,0,0,10,8.521V41.479a.463.463,0,0,0,.525.521H34.937c5.052,0,9.2-1.578,12.338-4.69A16.566,16.566,0,0,0,52,25.065a16.786,16.786,0,0,0-4.725-12.31A16.7,16.7,0,0,0,34.937,8Z" transform="translate(81)" fill="#fff"/>
    </g>
  </g>
</svg>
