<svg xmlns="http://www.w3.org/2000/svg" width="798" height="633" viewBox="0 0 798 633">
  <g id="G-4" transform="translate(-488 -5987)">
    <g id="Rectangle" transform="translate(488 5987)" fill="none" stroke="#000" stroke-miterlimit="10" stroke-width="1">
      <rect width="798" height="633" stroke="none"/>
      <rect x="0.5" y="0.5" width="797" height="632" fill="none"/>
    </g>
    <path id="Combined_Shape" data-name="Combined Shape" d="M493.858,72.36H469.665a.912.912,0,0,1-1.025-1.033V1.1A.912.912,0,0,1,469.665.064h24.193a28.92,28.92,0,0,1,9.11,1.343A19.844,19.844,0,0,1,510,5.435a17.265,17.265,0,0,1,4.5,6.326A21.564,21.564,0,0,1,516,20V52.426a21.564,21.564,0,0,1-1.5,8.237,17.265,17.265,0,0,1-4.5,6.326,19.844,19.844,0,0,1-7.035,4.028A28.919,28.919,0,0,1,493.858,72.36ZM476.328,6.468a.365.365,0,0,0-.41.413V65.543a.365.365,0,0,0,.41.413h17.837c4.422,0,7.992-1.321,10.61-3.925s3.947-6.147,3.947-10.534V21.03c0-4.454-1.311-8.034-3.9-10.638s-6.171-3.924-10.661-3.924ZM458.765,72.36H453.23a1.2,1.2,0,0,1-1.23-.826L447.9,58.52a.4.4,0,0,0-.41-.31h-30.65a.4.4,0,0,0-.41.31l-4.1,13.013a1.2,1.2,0,0,1-1.23.826h-5.535a.911.911,0,0,1-.76-.272.985.985,0,0,1-.061-.864L427.4.891a1.2,1.2,0,0,1,1.229-.826H435.6a1.2,1.2,0,0,1,1.23.826l22.757,70.333.1.413C459.689,72.117,459.378,72.36,458.765,72.36Zm-26.653-63a.33.33,0,0,0-.308.206L418.478,51.7a.289.289,0,0,0,.051.362.5.5,0,0,0,.359.155h26.447a.5.5,0,0,0,.359-.155.289.289,0,0,0,.051-.362L432.42,9.566A.33.33,0,0,0,432.113,9.36Zm-36.425,63h-5.433a1.206,1.206,0,0,1-1.229-.723L373.955,39.62a.4.4,0,0,0-.41-.31H356.118a.365.365,0,0,0-.41.413v31.6a.912.912,0,0,1-1.025,1.033h-5.228a.912.912,0,0,1-1.025-1.033V1.1A.912.912,0,0,1,349.456.064h26.55a21.993,21.993,0,0,1,7.97,1.381,17.758,17.758,0,0,1,6.279,4.144,18.17,18.17,0,0,1,4.075,6.365A22.753,22.753,0,0,1,395.688,20a22.128,22.128,0,0,1-.974,6.687,18.14,18.14,0,0,1-2.921,5.6,17.121,17.121,0,0,1-4.588,4.157,19.025,19.025,0,0,1-5.971,2.35.46.46,0,0,0-.266.26.315.315,0,0,0,.06.257l15.377,31.81a1.163,1.163,0,0,1,.1.517C396.508,72.116,396.232,72.36,395.688,72.36ZM356.118,6.468a.365.365,0,0,0-.41.413v26.13a.365.365,0,0,0,.41.413h19.067a13.035,13.035,0,0,0,9.636-3.719A13.242,13.242,0,0,0,388.512,20a13.423,13.423,0,0,0-3.69-9.761,12.942,12.942,0,0,0-9.636-3.769Zm-71,65.892h-49a1.184,1.184,0,0,1-.871-.362,1.2,1.2,0,0,1-.359-.878V1.3a1.2,1.2,0,0,1,.359-.877,1.184,1.184,0,0,1,.871-.362h14.557a1.187,1.187,0,0,1,.871.362,1.2,1.2,0,0,1,.359.877V57.178a.456.456,0,0,0,.512.517h32.7a1.189,1.189,0,0,1,.871.361,1.208,1.208,0,0,1,.358.878V71.12a1.2,1.2,0,0,1-.358.878A1.187,1.187,0,0,1,285.115,72.36Zm-54.467,0h-49a1.187,1.187,0,0,1-.871-.362,1.2,1.2,0,0,1-.359-.878V1.3a1.2,1.2,0,0,1,.359-.877,1.187,1.187,0,0,1,.871-.362H196.2a1.184,1.184,0,0,1,.871.362,1.2,1.2,0,0,1,.359.877V57.178a.456.456,0,0,0,.512.517h32.7a1.19,1.19,0,0,1,.871.361,1.206,1.206,0,0,1,.359.878V71.12a1.2,1.2,0,0,1-.359.878A1.187,1.187,0,0,1,230.648,72.36Zm-54.569,0H160.394a1.356,1.356,0,0,1-1.436-1.033l-2.665-9.192c-.136-.274-.309-.413-.513-.413H132.409c-.2,0-.377.139-.513.413l-2.665,9.192A1.357,1.357,0,0,1,127.8,72.36H112.111a.993.993,0,0,1-1.025-1.446L133.024,1.1A1.294,1.294,0,0,1,134.357.064h19.374A1.294,1.294,0,0,1,155.064,1.1L177.1,70.913a1.175,1.175,0,0,1,.1.517C177.206,72.047,176.826,72.36,176.079,72.36ZM144.037,20.973a.18.18,0,0,0-.045.006c-.135.034-.239.156-.307.361L136,47.882a.605.605,0,0,0,.074.495.42.42,0,0,0,.337.125h15.274a.472.472,0,0,0,.4-.146.529.529,0,0,0,.007-.474L144.3,21.34C144.239,21.1,144.151,20.973,144.037,20.973ZM108.388,72.36H59.9A1.187,1.187,0,0,1,59.028,72a1.2,1.2,0,0,1-.358-.878V1.3a1.2,1.2,0,0,1,.358-.877A1.187,1.187,0,0,1,59.9.064h48.488a1.187,1.187,0,0,1,.871.362,1.2,1.2,0,0,1,.358.877V13.491a1.2,1.2,0,0,1-.358.878,1.187,1.187,0,0,1-.871.362H76.2a.456.456,0,0,0-.513.517v12.7a.456.456,0,0,0,.513.516H96.8a1.187,1.187,0,0,1,.871.362,1.2,1.2,0,0,1,.359.878V41.789a1.2,1.2,0,0,1-.359.877,1.187,1.187,0,0,1-.871.362H76.2a.456.456,0,0,0-.513.517V57.178a.456.456,0,0,0,.513.517h32.188a1.189,1.189,0,0,1,.871.361,1.2,1.2,0,0,1,.358.878V71.12a1.2,1.2,0,0,1-.358.878A1.187,1.187,0,0,1,108.388,72.36Zm-54.57,0H38.442a1.457,1.457,0,0,1-1.436-.93L24.91,43.958a.659.659,0,0,0-.615-.413H17.529a.456.456,0,0,0-.512.516V71.12a1.2,1.2,0,0,1-.359.878,1.187,1.187,0,0,1-.871.362H1.23A1.185,1.185,0,0,1,.359,72,1.2,1.2,0,0,1,0,71.12V1.3A1.2,1.2,0,0,1,.359.426,1.184,1.184,0,0,1,1.23.064H31.676A24.612,24.612,0,0,1,43.567,2.853a19.669,19.669,0,0,1,7.944,7.9,23.976,23.976,0,0,1,2.82,11.722,21.14,21.14,0,0,1-3.383,11.98,19.155,19.155,0,0,1-9.431,7.333.494.494,0,0,0-.308.723l13.532,28.4a1.6,1.6,0,0,1,.205.62C54.946,72.082,54.567,72.36,53.818,72.36ZM17.529,14.73a.456.456,0,0,0-.512.517V29.912a.456.456,0,0,0,.512.517H28.908a8.891,8.891,0,0,0,6.151-2.118,7.224,7.224,0,0,0,2.358-5.629A7.509,7.509,0,0,0,35.059,16.9a8.763,8.763,0,0,0-6.151-2.169ZM317.643,72.153H303.189a1.186,1.186,0,0,1-.871-.361,1.205,1.205,0,0,1-.359-.878V46.437a1.455,1.455,0,0,0-.1-.62L280.842,1.511a1.6,1.6,0,0,1-.205-.62c0-.548.379-.826,1.128-.826h15.787a1.456,1.456,0,0,1,1.435.93l11.173,26.13c.1.206.206.31.308.31s.206-.1.308-.31L322.052.994a1.457,1.457,0,0,1,1.435-.93h15.889a1.124,1.124,0,0,1,.974.362,1.121,1.121,0,0,1-.051,1.084L318.976,45.817a1.456,1.456,0,0,0-.1.62V70.913a1.206,1.206,0,0,1-.359.878A1.184,1.184,0,0,1,317.643,72.153Z" transform="translate(670 6117)"/>
    <path id="Combined_Shape_Copy" data-name="Combined Shape Copy" d="M356.037,51.99H338.6a.659.659,0,0,1-.739-.749V.363a.659.659,0,0,1,.739-.748h17.442a20.754,20.754,0,0,1,6.568.973,14.293,14.293,0,0,1,5.072,2.918,12.508,12.508,0,0,1,3.242,4.583A15.689,15.689,0,0,1,372,14.056V37.55a15.689,15.689,0,0,1-1.081,5.967,12.508,12.508,0,0,1-3.242,4.583,14.293,14.293,0,0,1-5.072,2.918A20.754,20.754,0,0,1,356.037,51.99ZM343.4,4.254a.264.264,0,0,0-.3.3v42.5a.264.264,0,0,0,.3.3h12.859a10.387,10.387,0,0,0,7.649-2.843,10.354,10.354,0,0,0,2.845-7.631V14.8A10.533,10.533,0,0,0,363.945,7.1a10.358,10.358,0,0,0-7.686-2.843ZM330.738,51.99h-3.992a.865.865,0,0,1-.886-.6L322.9,41.964a.29.29,0,0,0-.3-.225h-22.1a.289.289,0,0,0-.3.225l-2.956,9.428a.865.865,0,0,1-.887.6h-3.991a.655.655,0,0,1-.547-.2.716.716,0,0,1-.044-.627L308.123.214a.867.867,0,0,1,.887-.6h5.026a.865.865,0,0,1,.886.6l16.406,50.953.075.3C331.4,51.814,331.18,51.99,330.738,51.99ZM311.523,6.349a.238.238,0,0,0-.222.149l-9.607,30.527a.211.211,0,0,0,.037.262.353.353,0,0,0,.259.112h19.066a.355.355,0,0,0,.259-.112.21.21,0,0,0,.037-.262L311.745,6.5A.238.238,0,0,0,311.523,6.349ZM285.263,51.99h-3.917a.869.869,0,0,1-.887-.524L269.6,28.271a.292.292,0,0,0-.3-.224H256.737a.264.264,0,0,0-.3.3v22.9a.659.659,0,0,1-.739.749h-3.769a.659.659,0,0,1-.739-.749V.363a.659.659,0,0,1,.739-.748h19.141a15.784,15.784,0,0,1,5.746,1,12.8,12.8,0,0,1,4.526,3,13.167,13.167,0,0,1,2.938,4.61,16.558,16.558,0,0,1,.979,5.827,14.274,14.274,0,0,1-2.808,8.9,12.7,12.7,0,0,1-7.612,4.713.333.333,0,0,0-.191.189.229.229,0,0,0,.044.186l11.085,23.044a.833.833,0,0,1,.074.374C285.854,51.814,285.655,51.99,285.263,51.99ZM256.737,4.254a.264.264,0,0,0-.3.3v18.93a.264.264,0,0,0,.3.3h13.746a9.372,9.372,0,0,0,6.947-2.694,9.617,9.617,0,0,0,2.66-7.033,9.747,9.747,0,0,0-2.66-7.07,9.305,9.305,0,0,0-6.947-2.732ZM205.547,51.99H170.221a.855.855,0,0,1-.628-.262.877.877,0,0,1-.258-.636V.514a.877.877,0,0,1,.258-.636.855.855,0,0,1,.628-.262h10.494a.852.852,0,0,1,.628.262.875.875,0,0,1,.259.636V40.991a.329.329,0,0,0,.369.374h23.576a.855.855,0,0,1,.628.262.873.873,0,0,1,.258.635v8.829a.874.874,0,0,1-.258.636A.855.855,0,0,1,205.547,51.99Zm-39.267,0H130.954a.855.855,0,0,1-.628-.262.877.877,0,0,1-.258-.636V.514a.877.877,0,0,1,.258-.636.855.855,0,0,1,.628-.262h10.495a.855.855,0,0,1,.628.262.877.877,0,0,1,.258.636V40.991a.33.33,0,0,0,.37.374H166.28a.852.852,0,0,1,.628.262.874.874,0,0,1,.259.635v8.829a.875.875,0,0,1-.259.636A.852.852,0,0,1,166.28,51.99Zm-39.34,0H115.633a.979.979,0,0,1-1.035-.749l-1.922-6.659c-.1-.2-.222-.3-.369-.3H95.458c-.149,0-.27.1-.37.3l-1.921,6.659a.978.978,0,0,1-1.035.749H80.825a.719.719,0,0,1-.739-1.048L95.9.363a.934.934,0,0,1,.961-.748H110.83a.932.932,0,0,1,.96.748l15.889,50.579a.853.853,0,0,1,.074.374C127.753,51.763,127.48,51.99,126.941,51.99Zm-23.1-37.227a.129.129,0,0,0-.032,0c-.1.024-.173.112-.222.262L98.044,34.257a.439.439,0,0,0,.053.359.3.3,0,0,0,.242.09h11.011a.341.341,0,0,0,.291-.105.383.383,0,0,0,.005-.344L104.03,15.029C103.986,14.852,103.923,14.763,103.841,14.763ZM78.14,51.99H43.184a.852.852,0,0,1-.628-.262.875.875,0,0,1-.259-.636V.514a.875.875,0,0,1,.259-.636.852.852,0,0,1,.628-.262H78.14a.855.855,0,0,1,.628.262.874.874,0,0,1,.258.636V9.342a.874.874,0,0,1-.258.636.855.855,0,0,1-.628.262H54.934a.33.33,0,0,0-.37.374v9.2a.33.33,0,0,0,.37.374H69.789a.852.852,0,0,1,.628.262.873.873,0,0,1,.258.635v8.754a.874.874,0,0,1-.258.636.852.852,0,0,1-.628.262H54.934a.329.329,0,0,0-.37.374v9.877a.33.33,0,0,0,.37.374H78.14a.855.855,0,0,1,.628.262.873.873,0,0,1,.258.635v8.829a.874.874,0,0,1-.258.636A.855.855,0,0,1,78.14,51.99Zm-39.341,0H27.714a1.05,1.05,0,0,1-1.035-.674l-8.72-19.9a.476.476,0,0,0-.444-.3H12.638a.33.33,0,0,0-.37.374v19.6a.877.877,0,0,1-.258.636.855.855,0,0,1-.628.262H.887a.855.855,0,0,1-.628-.262A.877.877,0,0,1,0,51.092V.514A.877.877,0,0,1,.258-.123.855.855,0,0,1,.887-.385h21.95a17.663,17.663,0,0,1,8.573,2.021,14.217,14.217,0,0,1,5.728,5.723,17.45,17.45,0,0,1,2.032,8.492,15.372,15.372,0,0,1-2.439,8.68,13.819,13.819,0,0,1-6.8,5.312.359.359,0,0,0-.222.524l9.755,20.576a1.154,1.154,0,0,1,.149.449C39.613,51.789,39.339,51.99,38.8,51.99ZM12.638,10.24a.33.33,0,0,0-.37.374V21.239a.329.329,0,0,0,.37.374h8.2a6.394,6.394,0,0,0,4.434-1.534A5.248,5.248,0,0,0,26.975,16a5.455,5.455,0,0,0-1.7-4.19A6.3,6.3,0,0,0,20.84,10.24ZM229,51.84h-10.42a.855.855,0,0,1-.628-.262.873.873,0,0,1-.258-.635V33.21a1.054,1.054,0,0,0-.075-.449L202.468.663a1.157,1.157,0,0,1-.148-.449c0-.4.273-.6.813-.6h11.381a1.049,1.049,0,0,1,1.034.673l8.056,18.93c.073.149.148.225.221.225s.148-.076.221-.225l8.13-18.93a1.05,1.05,0,0,1,1.035-.673h11.454a.812.812,0,0,1,.7.262.819.819,0,0,1-.037.786l-15.372,32.1a1.043,1.043,0,0,0-.074.449V50.942a.873.873,0,0,1-.259.635A.852.852,0,0,1,229,51.84Z" transform="translate(814 6281)"/>
    <path id="Combined_Shape_Copy_2" data-name="Combined Shape Copy 2" d="M210.56,31.664H200.245a.393.393,0,0,1-.437-.449V.7a.393.393,0,0,1,.437-.449H210.56a9.861,9.861,0,0,1,6.884,2.334A8.178,8.178,0,0,1,220,8.914V23a8.178,8.178,0,0,1-2.556,6.327A9.861,9.861,0,0,1,210.56,31.664ZM203.086,3.035a.158.158,0,0,0-.175.18V28.7a.158.158,0,0,0,.175.18h7.605a6.1,6.1,0,0,0,4.523-1.705A6.26,6.26,0,0,0,216.9,22.6V9.362a6.368,6.368,0,0,0-1.66-4.622,6.077,6.077,0,0,0-4.545-1.705ZM195.6,31.664h-2.361a.511.511,0,0,1-.524-.359l-1.749-5.654a.172.172,0,0,0-.175-.135H177.722a.174.174,0,0,0-.176.135L175.8,31.305a.512.512,0,0,1-.525.359h-2.36a.387.387,0,0,1-.323-.116.433.433,0,0,1-.028-.378L182.224.612a.511.511,0,0,1,.524-.359h2.973a.511.511,0,0,1,.524.359l9.7,30.558.044.18C195.991,31.559,195.859,31.664,195.6,31.664ZM184.234,4.292a.14.14,0,0,0-.131.09l-5.682,18.308a.127.127,0,0,0,.022.158.206.206,0,0,0,.153.067h11.276a.206.206,0,0,0,.153-.067.127.127,0,0,0,.022-.158L184.365,4.382A.139.139,0,0,0,184.234,4.292ZM168.7,31.664h-2.317a.515.515,0,0,1-.525-.314l-6.424-13.91a.172.172,0,0,0-.176-.135h-7.43a.157.157,0,0,0-.175.18v13.73a.393.393,0,0,1-.437.449h-2.229a.393.393,0,0,1-.436-.449V.7a.393.393,0,0,1,.436-.449h11.32a8.1,8.1,0,0,1,6.075,2.4,8.677,8.677,0,0,1,2.317,6.26,8.644,8.644,0,0,1-1.66,5.34,7.494,7.494,0,0,1-4.5,2.827.2.2,0,0,0-.113.112.139.139,0,0,0,.026.113l6.556,13.821a.513.513,0,0,1,.044.224C169.054,31.559,168.936,31.664,168.7,31.664ZM151.834,3.035a.157.157,0,0,0-.175.18V14.568c0,.12.057.179.175.179h8.129a5.5,5.5,0,0,0,4.108-1.616,5.81,5.81,0,0,0,1.574-4.217,5.891,5.891,0,0,0-1.574-4.241,5.462,5.462,0,0,0-4.108-1.638ZM121.56,31.664H100.669a.5.5,0,0,1-.372-.157.528.528,0,0,1-.153-.381V.792A.528.528,0,0,1,100.3.411a.5.5,0,0,1,.372-.158h6.206a.5.5,0,0,1,.372.158.528.528,0,0,1,.153.381V25.068a.2.2,0,0,0,.219.224H121.56a.5.5,0,0,1,.372.157.532.532,0,0,1,.153.382v5.3a.528.528,0,0,1-.153.381A.5.5,0,0,1,121.56,31.664Zm-23.222,0H77.447a.5.5,0,0,1-.372-.157.528.528,0,0,1-.153-.381V.792a.528.528,0,0,1,.153-.381.5.5,0,0,1,.372-.158h6.206a.5.5,0,0,1,.371.158.525.525,0,0,1,.153.381V25.068a.2.2,0,0,0,.219.224H98.338a.5.5,0,0,1,.371.157.529.529,0,0,1,.153.382v5.3a.525.525,0,0,1-.153.381A.5.5,0,0,1,98.338,31.664Zm-23.267,0H68.385a.579.579,0,0,1-.611-.449l-1.137-3.993c-.058-.119-.132-.18-.219-.18H56.453c-.087,0-.16.061-.219.18L55.1,31.215a.579.579,0,0,1-.612.449H47.8a.484.484,0,0,1-.393-.157.5.5,0,0,1-.043-.471L56.715.7a.553.553,0,0,1,.569-.449h8.26A.553.553,0,0,1,66.112.7l9.4,30.334a.514.514,0,0,1,.044.224C75.553,31.528,75.391,31.664,75.072,31.664ZM61.41,9.337l-.018,0a.21.21,0,0,0-.13.158L57.983,21.029a.265.265,0,0,0,.032.217.178.178,0,0,0,.143.053H64.67a.2.2,0,0,0,.171-.062.232.232,0,0,0,0-.208L61.523,9.5C61.5,9.391,61.46,9.337,61.41,9.337Zm-15.2,22.327H25.538a.5.5,0,0,1-.371-.157.525.525,0,0,1-.153-.381V.792a.525.525,0,0,1,.153-.381.5.5,0,0,1,.371-.158H46.211a.5.5,0,0,1,.372.158.525.525,0,0,1,.153.381v5.3a.525.525,0,0,1-.153.381.5.5,0,0,1-.372.157H32.488a.2.2,0,0,0-.219.224v5.52a.2.2,0,0,0,.219.224h8.785a.5.5,0,0,1,.372.158.528.528,0,0,1,.153.381v5.251a.532.532,0,0,1-.153.382.5.5,0,0,1-.372.157H32.488a.2.2,0,0,0-.219.224v5.924a.2.2,0,0,0,.219.224H46.211a.5.5,0,0,1,.372.157.529.529,0,0,1,.153.382v5.3a.525.525,0,0,1-.153.381A.5.5,0,0,1,46.211,31.664Zm-23.266,0H16.39a.622.622,0,0,1-.612-.4L10.621,19.324a.282.282,0,0,0-.263-.18H7.474a.2.2,0,0,0-.219.225V31.126a.525.525,0,0,1-.153.381.5.5,0,0,1-.371.157H.525a.5.5,0,0,1-.372-.157A.528.528,0,0,1,0,31.126V.792A.528.528,0,0,1,.153.411.5.5,0,0,1,.525.253H13.505a10.337,10.337,0,0,1,5.07,1.211A8.475,8.475,0,0,1,21.963,4.9a10.586,10.586,0,0,1,1.2,5.093A9.321,9.321,0,0,1,21.722,15.2,8.193,8.193,0,0,1,17.7,18.382a.215.215,0,0,0-.131.314l5.769,12.34a.707.707,0,0,1,.088.269C23.427,31.543,23.265,31.664,22.945,31.664ZM7.474,6.625a.2.2,0,0,0-.219.224v6.372a.2.2,0,0,0,.219.224h4.852a3.744,3.744,0,0,0,2.622-.92,3.166,3.166,0,0,0,1.005-2.445,3.294,3.294,0,0,0-1.005-2.513,3.693,3.693,0,0,0-2.622-.942ZM135.429,31.574h-6.162a.5.5,0,0,1-.372-.157.532.532,0,0,1-.153-.382V20.4a.627.627,0,0,0-.044-.269L119.739.882a.7.7,0,0,1-.087-.269c0-.238.162-.359.481-.359h6.731a.622.622,0,0,1,.612.4l4.764,11.353c.043.089.088.134.131.134s.087-.045.131-.134L137.309.657a.622.622,0,0,1,.612-.4h6.774a.475.475,0,0,1,.416.158.493.493,0,0,1-.023.471L136,20.132a.642.642,0,0,0-.043.269V31.036a.532.532,0,0,1-.153.382A.5.5,0,0,1,135.429,31.574Z" transform="translate(966 6426)"/>
  </g>
</svg>
