<svg xmlns="http://www.w3.org/2000/svg" width="113.731" height="113.731" viewBox="0 0 113.731 113.731">
  <path id="linkedin" d="M105.607,32H8.1A8.159,8.159,0,0,0,0,40.2v97.331a8.159,8.159,0,0,0,8.1,8.2h97.509a8.18,8.18,0,0,0,8.124-8.2V40.2A8.18,8.18,0,0,0,105.607,32ZM34.373,129.484H17.517V75.208H34.4v54.276ZM25.945,67.795a9.774,9.774,0,1,1,9.774-9.774A9.778,9.778,0,0,1,25.945,67.795ZM97.56,129.484H80.7v-26.4c0-6.3-.127-14.394-8.758-14.394-8.784,0-10.129,6.854-10.129,13.937v26.859H44.959V75.208H61.13V82.62h.228c2.259-4.265,7.768-8.758,15.968-8.758,17.06,0,20.233,11.246,20.233,25.869Z" transform="translate(0 -32)" fill="#fff"/>
</svg>
