<svg xmlns="http://www.w3.org/2000/svg" width="113" height="72" viewBox="0 0 113 72">
  <g id="S-2" fill="none" stroke-miterlimit="10">
    <path d="M86,72a26.782,26.782,0,0,1-16.058-5.292,27.053,27.053,0,0,1-9.654-13.444A27.032,27.032,0,0,0,79.712,18.736,27.131,27.131,0,0,1,86,18a27,27,0,1,1,0,54ZM27,72a27,27,0,1,1,0-54c.506,0,1.018.014,1.521.042A27.021,27.021,0,0,0,52.479,53.958,27.011,27.011,0,0,1,27,72ZM54,54c-.506,0-1.018-.014-1.521-.042A27.021,27.021,0,0,0,28.521,18.042a27.013,27.013,0,0,1,51.191.694A27.032,27.032,0,0,0,60.288,53.264,27.131,27.131,0,0,1,54,54Z" stroke="none"/>
    <path d="M 86.00040435791016 71 C 89.51073455810547 71 92.91555023193359 70.31271362304688 96.12026977539063 68.95726776123047 C 99.21620178222656 67.64781951904297 101.9968719482422 65.77301788330078 104.3850021362305 63.38491821289063 C 106.7731323242188 60.99686813354492 108.6480026245117 58.21621704101563 109.9575347900391 55.12021636962891 C 111.3130874633789 51.91543197631836 112.0004043579102 48.51050186157227 112.0004043579102 45 C 112.0004043579102 41.48949813842773 111.3130874633789 38.08456802368164 109.9575347900391 34.87978363037109 C 108.6480026245117 31.78378295898438 106.7731323242188 29.00313377380371 104.3850021362305 26.61508369445801 C 101.9968490600586 24.22698402404785 99.21620178222656 22.35218238830566 96.12026977539063 21.04274940490723 C 92.91556549072266 19.68728256225586 89.51074981689453 19 86.00040435791016 19 C 84.30989074707031 19 82.6256103515625 19.16269111633301 80.97965240478516 19.48428726196289 C 81.65708160400391 21.92130661010742 82 24.44443702697754 82 27 C 82 39.65081787109375 73.66016387939453 50.58386993408203 61.58533477783203 53.96077346801758 C 62.39799118041992 56.17533493041992 63.50963973999023 58.26710891723633 64.89791870117188 60.1920166015625 C 66.47443389892578 62.37789916992188 68.37190246582031 64.29988098144531 70.53760528564453 65.90454864501953 C 75.03655242919922 69.23801422119141 80.38349914550781 71 86.00040435791016 71 M 27.00000190734863 71 C 32.49256896972656 71 37.74301910400391 69.30853271484375 42.18373489379883 66.10843658447266 C 44.32245254516602 64.56723022460938 46.21038436889648 62.71708297729492 47.79510116577148 60.60938262939453 C 49.13321304321289 58.82963562011719 50.2318229675293 56.89656448364258 51.07037734985352 54.84861373901367 C 36.9059944152832 53.37835693359375 26.00000190734863 41.39833068847656 26.00000190734863 27 C 26.00000190734863 24.27103805541992 26.38955497741699 21.58642959594727 27.15946960449219 19.00048637390137 C 27.10624694824219 19.00016212463379 27.05310440063477 19 27.00000190734863 19 C 23.48943519592285 19 20.08450126647949 19.68728256225586 16.87975311279297 21.04276657104492 C 13.78376865386963 22.35219955444336 11.00313568115234 24.22699928283691 8.615068435668945 26.61506652832031 C 6.226985454559326 29.00316619873047 4.352185726165771 31.78380012512207 3.042752265930176 34.87976837158203 C 1.687285542488098 38.08453369140625 1.000002145767212 41.48946762084961 1.000002145767212 45 C 1.000002145767212 48.51053237915039 1.687285542488098 51.91546630859375 3.042768955230713 55.1202507019043 C 4.352185726165771 58.21620178222656 6.226985454559326 60.99683380126953 8.615085601806641 63.38493347167969 C 11.00311851501465 65.77300262451172 13.78376865386963 67.64779663085938 16.87976837158203 68.95726776123047 C 20.08450126647949 70.31271362304688 23.48945236206055 71 27.00000190734863 71 M 54.00000381469727 53 C 55.69052505493164 53 57.37479400634766 52.83731079101563 59.0207405090332 52.51571273803711 C 58.34331893920898 50.07871627807617 58.00040054321289 47.55559158325195 58.00040054321289 45 C 58.00040054321289 32.34916687011719 66.3402099609375 21.41611862182617 78.41505432128906 18.03922843933105 C 77.60239410400391 15.82464122772217 76.49074554443359 13.73284435272217 75.10248565673828 11.80795001983643 C 73.52601623535156 9.622133255004883 71.62855529785156 7.700166702270508 69.46278381347656 6.095449924468994 C 64.96383666992188 2.761983394622803 59.61688613891602 1 54.00000381469727 1 C 48.50741958618164 1 43.2569694519043 2.691466569900513 38.81626892089844 5.891550064086914 C 36.67745208740234 7.432849884033203 34.78952026367188 9.282999992370605 33.20488739013672 11.39061641693115 C 31.86676025390625 13.17036533355713 30.76815223693848 15.10342216491699 29.92960357666016 17.15136909484863 C 44.09399032592773 18.62161254882813 55.00000381469727 30.60167121887207 55.00000381469727 45 C 55.00000381469727 47.72893142700195 54.61043930053711 50.41355514526367 53.84051513671875 52.99951171875 C 53.89374542236328 52.99983596801758 53.9468994140625 53 54.00000381469727 53 M 86.00040435791016 72 C 80.16754913330078 72 74.61475372314453 70.17008209228516 69.94226837158203 66.70803070068359 C 67.69368743896484 65.04194641113281 65.72365570068359 63.04645156860352 64.08685302734375 60.77698516845703 C 62.42933654785156 58.47876739501953 61.15135192871094 55.95100021362305 60.28841781616211 53.26385116577148 C 72.48338317871094 50.35469818115234 81 39.55513381958008 81 27 C 81 24.17794990539551 80.56663513183594 21.3975830078125 79.71196746826172 18.73615074157715 C 81.76145172119141 18.24724960327148 83.87693786621094 18 86.00040435791016 18 C 89.64527130126953 18 93.18116760253906 18.7138500213623 96.50981903076172 20.12174987792969 C 99.72496795654297 21.48159980773926 102.6124496459961 23.42836761474609 105.0921020507813 25.90796661376953 C 107.5717849731445 28.3875675201416 109.5186004638672 31.27504920959473 110.878532409668 34.49021530151367 C 112.2864990234375 37.81893157958984 113.0004043579102 41.35494995117188 113.0004043579102 45 C 113.0004043579102 48.64505004882813 112.2864990234375 52.18106842041016 110.878532409668 55.50978469848633 C 109.5186004638672 58.72494888305664 107.5717849731445 61.61243438720703 105.0921020507813 64.09203338623047 C 102.6124496459961 66.57163238525391 99.72496795654297 68.51840209960938 96.50981903076172 69.87826538085938 C 93.18116760253906 71.28614807128906 89.64527130126953 72 86.00040435791016 72 Z M 27.00000190734863 72 C 23.35491943359375 72 19.81890296936035 71.28614807128906 16.49021911621094 69.87826538085938 C 13.27505207061768 68.51840209960938 10.38755226135254 66.57163238525391 7.907968997955322 64.09203338623047 C 5.428385734558105 61.61244964599609 3.481602191925049 58.72494888305664 2.121752262115479 55.50978469848633 C 0.7138688564300537 52.18109893798828 2.178955128329108e-06 48.64508438110352 2.178955128329108e-06 45 C 2.178955128329108e-06 41.35491561889648 0.7138688564300537 37.81890106201172 2.121752262115479 34.49021530151367 C 3.481602191925049 31.27504920959473 5.428385734558105 28.38755035400391 7.907968997955322 25.90796661376953 C 10.38755226135254 23.42836761474609 13.27505207061768 21.48159980773926 16.49021911621094 20.12174987792969 C 19.81890296936035 18.7138500213623 23.35491943359375 18 27.00000190734863 18 C 27.50576972961426 18 28.01763534545898 18.01418304443359 28.52140235900879 18.04216575622559 C 27.51216888427734 20.91284942626953 27.00000190734863 23.92625045776367 27.00000190734863 27 C 27.00000190734863 41.32296752929688 38.19153594970703 53.16424942016602 52.47858428955078 53.95781707763672 C 51.56385040283203 56.55970001220703 50.25673675537109 58.99935150146484 48.59438705444336 61.21033477783203 C 46.9490852355957 63.39861679077148 44.98893737792969 65.31954956054688 42.76836776733398 66.91973114013672 C 38.15635299682617 70.24326324462891 32.7037353515625 72 27.00000190734863 72 Z M 54.00000381469727 54 C 53.49431991577148 54 52.98245239257813 53.98580169677734 52.47858428955078 53.95781707763672 C 53.48783493041992 51.08708190917969 54.00000381469727 48.07368469238281 54.00000381469727 45 C 54.00000381469727 30.67701721191406 42.80846786499023 18.83573341369629 28.52140235900879 18.04216575622559 C 29.43613624572754 15.44026660919189 30.74325180053711 13.00063323974609 32.40560150146484 10.7896671295166 C 34.05085372924805 8.60141658782959 36.01102066040039 6.680500030517578 38.23161697387695 5.08026647567749 C 42.84363555908203 1.756733298301697 48.29626846313477 0 54.00000381469727 0 C 59.83285140991211 0 65.38565063476563 1.829933285713196 70.05812072753906 5.291966438293457 C 72.30668640136719 6.958033561706543 74.27674865722656 8.953516960144043 75.91355133056641 11.22299957275391 C 77.57106781005859 13.52121639251709 78.84903717041016 16.04898262023926 79.71196746826172 18.73615074157715 C 67.51702117919922 21.64528274536133 59.00040054321289 32.44485092163086 59.00040054321289 45 C 59.00040054321289 47.82204818725586 59.43375396728516 50.6024169921875 60.28841781616211 53.26385116577148 C 58.23895263671875 53.75275039672852 56.12345123291016 54 54.00000381469727 54 Z" stroke="none" fill="#fff"/>
  </g>
</svg>
