<svg xmlns="http://www.w3.org/2000/svg" width="106.067" height="117" viewBox="0 0 106.067 117">
  <g id="S-3" fill="none" stroke-miterlimit="10">
    <path d="M47.752,117v0h0l-3.042-19.2A35.033,35.033,0,0,0,48.5,98a34.523,34.523,0,0,0,32.4-46.39L96.774,49.1l9.293,58.668ZM44.71,97.794h0A34.5,34.5,0,0,1,14,63.5c0-.983.042-1.976.124-2.951L40.7,72.455,38.461,58.332l26.1-4.135h0v0L71.732,38A34.672,34.672,0,0,1,80.9,51.611L64.564,54.2,53.875,78.359,40.7,72.454,44.71,97.793ZM14.125,60.549h0L0,54.22,23.987,0,77.862,24.14,71.733,37.994A34.5,34.5,0,0,0,14.125,60.549Z" stroke="none"/>
    <path d="M 48.41815185546875 116.0845642089844 L 105.151496887207 107.0992202758789 L 96.10929870605469 50.01119232177734 L 81.96920013427734 52.25060272216797 C 83.18441009521484 55.86572265625 83.7998046875 59.64517211914063 83.7998046875 63.50040817260742 C 83.7998046875 82.9647216796875 67.96441650390625 98.80010986328125 48.50010299682617 98.80010986328125 C 47.55516815185547 98.80010986328125 46.60430908203125 98.76229095458984 45.66188812255859 98.68743133544922 L 48.41815185546875 116.0845642089844 M 43.75380706787109 96.86847686767578 L 39.97484970092773 73.00833892822266 L 14.84525966644287 61.74885177612305 C 14.81543922424316 62.33214569091797 14.80040168762207 62.91799926757813 14.80040168762207 63.50040817260742 C 14.80040168762207 71.85592651367188 17.88025093078613 79.87082672119141 23.47261810302734 86.06867218017578 C 28.78786849975586 91.95935821533203 35.95687484741211 95.76857757568359 43.75380706787109 96.86847686767578 M 53.46849822998047 77.3006591796875 L 63.23816680908203 55.21711349487305 L 39.37578201293945 58.99672317504883 L 41.41762542724609 71.90071868896484 L 53.46849822998047 77.3006591796875 M 13.44043445587158 59.36539077758789 C 15.50026416778564 41.79988861083984 30.68633842468262 28.19980812072754 48.50010299682617 28.19980812072754 C 56.94753265380859 28.19980812072754 65.05094146728516 31.19992828369141 71.44301605224609 36.67109298706055 L 76.80796051025391 24.54429626464844 L 24.3932056427002 1.058744072914124 L 1.053737759590149 53.81512069702148 L 13.44043445587158 59.36539077758789 M 65.88857269287109 53.17739486694336 L 79.79532623291016 50.97494888305664 C 78.05010986328125 46.6231803894043 75.38033294677734 42.64000701904297 72.00612640380859 39.35269927978516 L 65.88857269287109 53.17739486694336 M 47.75220108032227 117.0000076293945 L 47.75188446044922 116.9980392456055 L 47.75286865234375 116.9978713989258 L 44.71039962768555 97.79428863525391 C 45.95720291137695 97.93048858642578 47.23186874389648 98.00010681152344 48.50010299682617 98.00010681152344 C 67.52330017089844 98.00010681152344 82.99980163574219 82.52360534667969 82.99980163574219 63.50040817260742 C 82.99980163574219 59.41285705566406 82.29208374023438 55.41254043579102 80.89627075195313 51.61055755615234 L 96.77429962158203 49.09590911865234 L 106.0668029785156 107.7642211914063 L 47.75220108032227 117.0000076293945 Z M 44.71039962768555 97.79428863525391 L 44.70910263061523 97.79415893554688 C 36.31460189819336 96.87677764892578 28.56173515319824 92.90292358398438 22.8786678314209 86.60460662841797 C 17.15343475341797 80.25950622558594 14.00040149688721 72.05427551269531 14.00040149688721 63.50040817260742 C 14.00040149688721 62.51715850830078 14.04228496551514 61.5242919921875 14.12486839294434 60.54944229125977 L 40.6953010559082 72.45450592041016 L 38.46060180664063 58.33170700073242 L 64.56420135498047 54.19710922241211 L 64.56238555908203 54.19739151000977 L 64.56313323974609 54.19572448730469 L 71.73198699951172 37.99525833129883 C 75.82855224609375 41.72874069213867 78.9969482421875 46.43695831298828 80.89627075195313 51.61055755615234 L 64.56420135498047 54.19710922241211 L 53.87490081787109 78.35940551757813 L 40.69710159301758 72.45449066162109 L 44.71020126342773 97.79299163818359 L 44.71039962768555 97.79428863525391 Z M 14.12491798400879 60.54874038696289 L 14.12291812896729 60.5485725402832 L 14.12296772003174 60.54787445068359 L 1.489257783759967e-06 54.21960830688477 L 23.98680114746094 7.62939453125e-06 L 77.86170196533203 24.13980674743652 L 71.73253631591797 37.99402618408203 C 65.3677978515625 32.19414138793945 57.11760330200195 28.99980735778809 48.50010299682617 28.99980735778809 C 30.72328567504883 28.99980735778809 15.6239185333252 42.85775756835938 14.12491798400879 60.54874038696289 Z" stroke="none" fill="#fff"/>
  </g>
</svg>
