<svg xmlns="http://www.w3.org/2000/svg" width="120" height="72" viewBox="0 0 120 72">
  <g id="S-4" fill="none" stroke-miterlimit="10">
    <path d="M83.5,72a37.292,37.292,0,0,1-7-.661A36.171,36.171,0,0,0,106,36,36.172,36.172,0,0,0,76.5.661,37.292,37.292,0,0,1,83.5,0a36.64,36.64,0,0,1,25.809,10.544,35.858,35.858,0,0,1,7.822,11.443,35.663,35.663,0,0,1,0,28.025,35.857,35.857,0,0,1-7.822,11.443A36.64,36.64,0,0,1,83.5,72Zm-14,0a37.2,37.2,0,0,1-8-.867,36.679,36.679,0,0,0,7-2.3A36.592,36.592,0,0,1,60,63.547,35.686,35.686,0,0,0,60,8.453a36.589,36.589,0,0,1,8.5-5.282h0a36.678,36.678,0,0,0-7-2.3,37.347,37.347,0,0,1,15-.206,36.661,36.661,0,0,0-8,2.509h0A36.414,36.414,0,0,1,84,16.223a35.614,35.614,0,0,1,0,39.554A36.415,36.415,0,0,1,68.5,68.829a36.664,36.664,0,0,0,8,2.509A37.292,37.292,0,0,1,69.5,72Zm-16,0a37.157,37.157,0,0,1-8.5-.981,36.629,36.629,0,0,0,8-2.9A36.447,36.447,0,0,1,38.55,55.091a35.614,35.614,0,0,1,0-38.183A36.446,36.446,0,0,1,53,3.88h0a36.63,36.63,0,0,0-8-2.9A37.313,37.313,0,0,1,61.5.867,36.618,36.618,0,0,0,53,3.88h0a36.65,36.65,0,0,1,7,4.573,35.685,35.685,0,0,0,0,55.094,36.651,36.651,0,0,1-7,4.573,36.62,36.62,0,0,0,8.5,3.012A37.2,37.2,0,0,1,53.5,72Zm-17,0a36.642,36.642,0,0,1-25.81-10.544A35.857,35.857,0,0,1,2.868,50.013a35.663,35.663,0,0,1,0-28.025,35.857,35.857,0,0,1,7.822-11.443A36.642,36.642,0,0,1,36.5,0,37.155,37.155,0,0,1,45,.981a35.9,35.9,0,0,0,0,70.037A37.156,37.156,0,0,1,36.5,72Z" stroke="none"/>
    <path d="M 83.50019836425781 71.19999694824219 C 88.32136535644531 71.19999694824219 92.99776458740234 70.26889801025391 97.39948272705078 68.43256378173828 C 101.650749206543 66.65899658203125 105.4687652587891 64.12001800537109 108.7474975585938 60.88615036010742 C 112.0254211425781 57.65306854248047 114.5988006591797 53.88863372802734 116.3961715698242 49.6973991394043 C 118.2564544677734 45.35931777954102 119.1996994018555 40.75083160400391 119.1996994018555 36 C 119.1996994018555 31.24914932250977 118.2564544677734 26.64068412780762 116.3961715698242 22.30261611938477 C 114.5988159179688 18.11141586303711 112.0254364013672 14.34698295593262 108.7474975585938 11.11386680603027 C 105.4687194824219 7.87993335723877 101.6506881713867 5.340950012207031 97.39948272705078 3.567450046539307 C 92.99770355224609 1.731099963188171 88.32130432128906 0.800000011920929 83.50019836425781 0.800000011920929 C 82.58303070068359 0.800000011920929 81.66568756103516 0.8345153331756592 80.75228118896484 0.9031601548194885 C 96.07094573974609 5.671592712402344 106.8002014160156 19.8233585357666 106.8002014160156 36 C 106.8002014160156 52.17662811279297 96.07093048095703 66.32839965820313 80.75225830078125 71.09683990478516 C 81.66567993164063 71.16548919677734 82.58300018310547 71.19999694824219 83.50019836425781 71.19999694824219 M 69.49980163574219 71.19999694824219 C 70.41851043701172 71.19999694824219 71.33734893798828 71.16537475585938 72.25228118896484 71.09649658203125 C 70.97743225097656 70.69913482666016 69.723876953125 70.23372650146484 68.50009155273438 69.70294952392578 C 67.42598724365234 70.16878509521484 66.32791900634766 70.58461761474609 65.21244049072266 70.94831848144531 C 66.63142395019531 71.11566925048828 68.06454467773438 71.19999694824219 69.49980163574219 71.19999694824219 M 53.49959945678711 71.19999694824219 C 54.93494415283203 71.19999694824219 56.36795043945313 71.11569213867188 57.78698348999023 70.94834136962891 C 56.14899444580078 70.41416931152344 54.5485725402832 69.76718902587891 53.00009536743164 69.01254272460938 C 51.54041290283203 69.72388458251953 50.0332145690918 70.34008026123047 48.49222183227539 70.85609436035156 C 50.14572143554688 71.08473968505859 51.82028579711914 71.19999694824219 53.49959945678711 71.19999694824219 M 36.50040054321289 71.19999694824219 C 38.17644882202148 71.19999694824219 39.84778594970703 71.08518218994141 41.49815368652344 70.857421875 C 26.44334030151367 65.84768676757813 16.20010185241699 51.96452331542969 16.20010185241699 36 C 16.20010185241699 20.03547477722168 26.44338226318359 6.152297973632813 41.49819564819336 1.142580270767212 C 39.84784698486328 0.9148134589195251 38.17651748657227 0.800000011920929 36.50040054321289 0.800000011920929 C 31.67906761169434 0.800000011920929 27.00250053405762 1.731099963188171 22.60060119628906 3.567450046539307 C 18.34923362731934 5.340966701507568 14.53111743927002 7.879950046539307 11.25230121612549 11.11386680603027 C 7.974301338195801 14.34698295593262 5.400901317596436 18.11141586303711 3.603567838668823 22.30261611938477 C 1.743251204490662 26.64068412780762 0.8000012040138245 31.24914932250977 0.8000012040138245 36 C 0.8000012040138245 40.75085067749023 1.743251204490662 45.35933303833008 3.603567838668823 49.6973991394043 C 5.400918006896973 53.88859939575195 7.974318027496338 57.65304946899414 11.25230121612549 60.88615036010742 C 14.53108501434326 64.12001800537109 18.34921836853027 66.65899658203125 22.60061836242676 68.43256378173828 C 27.00245094299316 70.26889801025391 31.67901802062988 71.19999694824219 36.50040054321289 71.19999694824219 M 68.5001220703125 67.95150756835938 C 74.53961181640625 65.19132232666016 79.66485595703125 60.83424377441406 83.33895111083984 55.33250045776367 C 87.17328643798828 49.59076690673828 89.20000457763672 42.90570068359375 89.20000457763672 36 C 89.20000457763672 29.09429931640625 87.17328643798828 22.40923309326172 83.33895111083984 16.66749954223633 C 79.66484069824219 11.16574096679688 74.53960418701172 6.808655738830566 68.50012969970703 4.048488140106201 C 65.91761016845703 5.229093074798584 63.4847297668457 6.713298320770264 61.25217056274414 8.46962833404541 C 69.23928833007813 15.46158504486084 73.79990386962891 25.43983840942383 73.79990386962891 36 C 73.79990386962891 46.56014633178711 69.23929595947266 56.53839492797852 61.25217437744141 63.53035354614258 C 63.48467254638672 65.28665924072266 65.91754913330078 66.77085876464844 68.5001220703125 67.95150756835938 M 53.00008010864258 67.22306060791016 C 55.02688217163086 66.17945098876953 56.9550895690918 64.94054412841797 58.74801635742188 63.53032684326172 C 50.76055145263672 56.53833770751953 46.19980239868164 46.56011199951172 46.19980239868164 36 C 46.19980239868164 25.43987083435059 50.76054763793945 15.46164894104004 58.74801254272461 8.469661712646484 C 56.95500183105469 7.059390068054199 55.02676391601563 5.820456981658936 53.00007247924805 4.776924610137939 C 47.36511611938477 7.677719116210938 42.60794448852539 12.01381683349609 39.22503280639648 17.33768272399902 C 35.67615127563477 22.92275047302246 33.80030059814453 29.37608337402344 33.80030059814453 36 C 33.80030059814453 42.6239013671875 35.67615127563477 49.07723236083984 39.22503280639648 54.66231536865234 C 42.60795974731445 59.98616790771484 47.36513900756836 64.32225036621094 53.00008010864258 67.22306060791016 M 53.00008773803711 2.987451553344727 C 54.54848480224609 2.232840538024902 56.14909362792969 1.585805892944336 57.78698348999023 1.051643013954163 C 56.36795425415039 0.8842989802360535 54.93496322631836 0.800000011920929 53.49959945678711 0.800000011920929 C 51.82024765014648 0.800000011920929 50.14569091796875 0.9152584075927734 48.49219512939453 1.143908381462097 C 50.03327178955078 1.659936428070068 51.54034805297852 2.276077508926392 53.00008773803711 2.987451553344727 M 68.50009918212891 2.297055959701538 C 69.72398376464844 1.766226887702942 70.97731781005859 1.300884604454041 72.25227355957031 0.9034991264343262 C 71.33733367919922 0.8346232771873474 70.41854858398438 0.800000011920929 69.49980163574219 0.800000011920929 C 68.06452941894531 0.800000011920929 66.63140869140625 0.8843225240707397 65.21242523193359 1.051666617393494 C 66.32798767089844 1.415391564369202 67.42597961425781 1.831203937530518 68.50009918212891 2.297055959701538 M 83.50019836425781 72 C 81.1461181640625 72 78.79090118408203 71.7774658203125 76.5 71.33854675292969 C 93.59356689453125 68.06361389160156 106.0001983642578 53.20243453979492 106.0001983642578 36 C 106.0001983642578 18.79838371276855 93.59356689453125 3.936366558074951 76.5 0.6614500284194946 C 78.79436492919922 0.2218833267688751 81.14958190917969 0 83.50019836425781 0 C 88.42758178710938 0 93.20761871337891 0.9518499970436096 97.70750427246094 2.829116582870483 C 102.0538024902344 4.642300128936768 105.9571990966797 7.238083362579346 109.3092880249023 10.5443000793457 C 112.6613311767578 13.8505163192749 115.2930679321289 17.70051574707031 117.1314163208008 21.9873161315918 C 119.03466796875 26.42558288574219 119.9997024536133 31.14011573791504 119.9997024536133 36 C 119.9997024536133 40.85988235473633 119.03466796875 45.57441711425781 117.1314163208008 50.01269912719727 C 115.2930526733398 54.29953384399414 112.6613159179688 58.14953231811523 109.3092880249023 61.45571517944336 C 105.9571990966797 64.76193237304688 102.0538024902344 67.35768127441406 97.70750427246094 69.1708984375 C 93.20764923095703 71.04816436767578 88.42763519287109 72 83.50019836425781 72 Z M 69.49980163574219 72 C 66.80066680908203 72 64.10910034179688 71.70815277099609 61.49985122680664 71.132568359375 C 63.89830017089844 70.60350036621094 66.25351715087891 69.82914733886719 68.50009918212891 68.82913208007813 C 65.43785095214844 67.46600341796875 62.57803344726563 65.68814849853516 60.00011825561523 63.54678344726563 C 68.26166534423828 56.68408203125 72.99990081787109 46.64423370361328 72.99990081787109 36 C 72.99990081787109 25.3563175201416 68.26166534423828 15.31589984893799 60.00011825561523 8.453200340270996 C 62.58095169067383 6.309433460235596 65.44073486328125 4.532700061798096 68.50009918212891 3.170866727828979 L 68.49970245361328 3.170700073242188 C 66.25613403320313 2.172016620635986 63.90103530883789 1.39709997177124 61.49985122680664 0.8674166798591614 C 64.11205291748047 0.2911833226680756 66.80361938476563 0 69.49980163574219 0 C 71.8538818359375 0 74.20909881591797 0.222533330321312 76.5 0.6614500284194946 C 73.75058746337891 1.188199996948242 71.05916595458984 2.031766653060913 68.50050354003906 3.170700073242188 L 68.50011444091797 3.170866727828979 C 74.81946563720703 5.983850002288818 80.18043518066406 10.49728298187256 84.00423431396484 16.22321701049805 C 87.92670440673828 22.09691619873047 90 28.93561744689941 90 36 C 90 43.06438446044922 87.92670440673828 49.90308380126953 84.00423431396484 55.77678298950195 C 80.18032073974609 61.50289916992188 74.81906890869141 66.01631927490234 68.50009918212891 68.82913208007813 C 71.05376434326172 69.96586608886719 73.74533081054688 70.81078338623047 76.5 71.33854675292969 C 74.20561981201172 71.77811431884766 71.85040283203125 72 69.49980163574219 72 Z M 53.49959945678711 72 C 50.62703323364258 72 47.76735305786133 71.66985321044922 44.99998474121094 71.01869964599609 C 47.76596832275391 70.36785125732422 50.45756912231445 69.39333343505859 53.00010299682617 68.12026977539063 C 47.07821655273438 65.15509796142578 42.08140182495117 60.64916610717773 38.5498161315918 55.09136581420898 C 34.9193000793457 49.37781524658203 33.00030136108398 42.77611541748047 33.00030136108398 36 C 33.00030136108398 29.22386741638184 34.9193000793457 22.62216758728027 38.5498161315918 16.90863418579102 C 42.08196640014648 11.3499002456665 47.07878494262695 6.844583511352539 53.00010299682617 3.879716634750366 L 52.99965286254883 3.8795166015625 C 50.45968627929688 2.607766628265381 47.76821899414063 1.632683277130127 44.99998474121094 0.9813166856765747 C 47.77006912231445 0.3294999897480011 50.62973403930664 0 53.49959945678711 0 C 56.19888305664063 0 58.89055252075195 0.2918333411216736 61.49985122680664 0.8674166798591614 C 58.55644989013672 1.516716718673706 55.69686889648438 2.529483318328857 53.00053405761719 3.8795166015625 L 53.00011825561523 3.879733324050903 C 55.49698638916016 5.12993335723877 57.8518180847168 6.668683528900146 60.00011825561523 8.453200340270996 C 51.73823547363281 15.31593322753906 46.99980163574219 25.35580062866211 46.99980163574219 36 C 46.99980163574219 46.64363479614258 51.73823547363281 56.68405151367188 60.00011825561523 63.54678344726563 C 57.84990310668945 65.33291625976563 55.4947509765625 66.87114715576172 53.00010299682617 68.12026977539063 C 55.69208526611328 69.46817016601563 58.55181884765625 70.48224639892578 61.49985122680664 71.132568359375 C 58.88755035400391 71.70881652832031 56.19588470458984 72 53.49959945678711 72 Z M 36.50040054321289 72 C 31.57276725769043 72 26.79256820678711 71.04816436767578 22.29260063171387 69.1708984375 C 17.9461669921875 67.35768127441406 14.04266834259033 64.76193237304688 10.6905345916748 61.45571517944336 C 7.33843469619751 58.14951705932617 4.706667900085449 54.29951477050781 2.868317842483521 50.01269912719727 C 0.9650512337684631 45.5744514465332 1.226806602971919e-06 40.85990142822266 1.226806602971919e-06 36 C 1.226806602971919e-06 31.14011573791504 0.9650512337684631 26.42556571960449 2.868317842483521 21.9873161315918 C 4.706667900085449 17.70048332214355 7.338451385498047 13.85048294067383 10.6905345916748 10.5443000793457 C 14.04266834259033 7.238066673278809 17.9461669921875 4.642300128936768 22.29260063171387 2.829116582870483 C 26.7925853729248 0.9518499970436096 31.57278442382813 0 36.50040054321289 0 C 39.3730354309082 0 42.23271942138672 0.3301500082015991 44.99998474121094 0.9813166856765747 C 28.51406860351563 4.860466480255127 17.00010108947754 19.25988388061523 17.00010108947754 36 C 17.00010108947754 52.73929977416992 28.51406860351563 67.13953399658203 44.99998474121094 71.01869964599609 C 42.22986602783203 71.67050170898438 39.37018585205078 72 36.50040054321289 72 Z" stroke="none" fill="#fff"/>
  </g>
</svg>
